<?xml version="1.0" encoding="utf-8"?>
<!-- Generator: Adobe Illustrator 15.0.0, SVG Export Plug-In . SVG Version: 6.00 Build 0)  -->
<!DOCTYPE svg PUBLIC "-//W3C//DTD SVG 1.1//EN" "http://www.w3.org/Graphics/SVG/1.1/DTD/svg11.dtd">
<svg version="1.1" id="Layer_1" xmlns="http://www.w3.org/2000/svg" xmlns:xlink="http://www.w3.org/1999/xlink" x="0px" y="0px"
	 width="48px" height="48px" viewBox="0 0 48 48" enable-background="new 0 0 48 48" xml:space="preserve">
<rect fill-rule="evenodd" clip-rule="evenodd" fill="#3C78B5" width="48" height="48"/>
<g opacity="0.12">
	<polygon fill-rule="evenodd" clip-rule="evenodd" fill="#93C842" points="14.445,2 36,14.445 23.557,36 2,23.556 14.445,2 	"/>
	<path fill-rule="evenodd" clip-rule="evenodd" fill="#FFFFFF" d="M26.888,30.261c-2.493,1.579-5.507,2.405-8.686,2.175
		c-0.341-0.025-0.677-0.061-1.011-0.109c-3.25-1.838-6.007-3.457-9.204-5.306c-1.898-2.421-3.003-5.467-2.959-8.709
		c-0.023-0.108,2.087-3.784,2.214-3.867C5.839,27.057,18.194,33.849,28.399,27.599C28.464,27.575,26.943,30.272,26.888,30.261
		L26.888,30.261z"/>
	<path fill-rule="evenodd" clip-rule="evenodd" fill="#FFFFFF" d="M23.734,27.844C13.15,31.76,3.635,19.065,10.96,9.521
		c1.652-2.154,5.08-3.98,7.705-4.35C4.058,11.949,12.04,29.703,23.734,27.844L23.734,27.844z"/>
	<path fill-rule="evenodd" clip-rule="evenodd" fill="#FFFFFF" d="M17.758,25.229c-8.481-3.687-6.879-16.97,2.864-18.459
		c0.637-0.099,1.344-0.095,2.071-0.01c0.026,0.015,1.934,1.114,1.926,1.113C14.295,6.771,9.989,19.611,17.758,25.229L17.758,25.229z
		"/>
	<g>
		<path fill="#1F1A17" d="M25.021,21.375h7.699c0.164,0,0.31,0.057,0.438,0.174c0.129,0.115,0.192,0.261,0.192,0.437v3.504
			c0,0.162-0.06,0.306-0.182,0.427c-0.122,0.123-0.266,0.184-0.429,0.184H20.012c-0.178,0-0.326-0.061-0.449-0.184
			c-0.121-0.121-0.183-0.265-0.183-0.427V10.742c0-0.163,0.058-0.305,0.173-0.428c0.115-0.122,0.262-0.183,0.438-0.183h4.421
			c0.162,0,0.308,0.062,0.438,0.183c0.128,0.123,0.192,0.265,0.192,0.428L25.021,21.375z"/>
	</g>
</g>
<g opacity="0.34">
	<polygon fill-rule="evenodd" clip-rule="evenodd" fill="#93C842" points="16.945,4.5 38.5,16.945 26.057,38.5 4.5,26.056 
		16.945,4.5 	"/>
	<path fill-rule="evenodd" clip-rule="evenodd" fill="#FFFFFF" d="M29.388,32.761c-2.493,1.579-5.507,2.405-8.686,2.175
		c-0.341-0.025-0.677-0.061-1.011-0.109c-3.25-1.838-6.007-3.457-9.204-5.306c-1.898-2.421-3.003-5.467-2.959-8.709
		c-0.023-0.108,2.087-3.784,2.214-3.867C8.339,29.557,20.694,36.349,30.899,30.099C30.964,30.075,29.443,32.772,29.388,32.761
		L29.388,32.761z"/>
	<path fill-rule="evenodd" clip-rule="evenodd" fill="#FFFFFF" d="M26.234,30.344C15.65,34.26,6.135,21.565,13.46,12.021
		c1.652-2.154,5.08-3.98,7.705-4.35C6.558,14.449,14.54,32.203,26.234,30.344L26.234,30.344z"/>
	<path fill-rule="evenodd" clip-rule="evenodd" fill="#FFFFFF" d="M20.258,27.729c-8.481-3.687-6.879-16.97,2.864-18.459
		c0.637-0.099,1.344-0.095,2.071-0.01c0.026,0.015,1.934,1.114,1.926,1.113C16.795,9.271,12.489,22.111,20.258,27.729L20.258,27.729
		z"/>
	<g>
		<path fill="#1F1A17" d="M27.521,23.875h7.699c0.164,0,0.31,0.057,0.438,0.174c0.129,0.115,0.192,0.261,0.192,0.437v3.504
			c0,0.162-0.06,0.306-0.182,0.427c-0.122,0.123-0.266,0.184-0.429,0.184H22.512c-0.178,0-0.326-0.061-0.449-0.184
			c-0.121-0.121-0.183-0.265-0.183-0.427V13.242c0-0.163,0.058-0.305,0.173-0.428c0.115-0.122,0.262-0.183,0.438-0.183h4.421
			c0.162,0,0.308,0.062,0.438,0.183c0.128,0.123,0.192,0.265,0.192,0.428L27.521,23.875z"/>
	</g>
</g>
<g opacity="0.56">
	<polygon fill-rule="evenodd" clip-rule="evenodd" fill="#93C842" points="19.445,7 41,19.445 28.557,41 7,28.556 19.445,7 	"/>
	<path fill-rule="evenodd" clip-rule="evenodd" fill="#FFFFFF" d="M31.888,35.261c-2.493,1.579-5.507,2.405-8.686,2.175
		c-0.341-0.025-0.677-0.061-1.011-0.109c-3.25-1.838-6.007-3.457-9.204-5.306c-1.898-2.421-3.003-5.467-2.959-8.709
		c-0.023-0.108,2.087-3.784,2.214-3.867c-1.403,12.612,10.952,19.404,21.157,13.154C33.464,32.575,31.943,35.272,31.888,35.261
		L31.888,35.261z"/>
	<path fill-rule="evenodd" clip-rule="evenodd" fill="#FFFFFF" d="M28.734,32.844C18.15,36.76,8.635,24.065,15.96,14.521
		c1.652-2.154,5.08-3.98,7.705-4.35C9.058,16.949,17.04,34.703,28.734,32.844L28.734,32.844z"/>
	<path fill-rule="evenodd" clip-rule="evenodd" fill="#FFFFFF" d="M22.758,30.229c-8.481-3.687-6.879-16.97,2.864-18.459
		c0.637-0.099,1.344-0.095,2.071-0.01c0.026,0.015,1.934,1.114,1.926,1.113C19.295,11.771,14.989,24.611,22.758,30.229
		L22.758,30.229z"/>
	<g>
		<path fill="#1F1A17" d="M30.021,26.375h7.699c0.164,0,0.31,0.057,0.438,0.174c0.129,0.115,0.192,0.261,0.192,0.437v3.504
			c0,0.162-0.06,0.306-0.182,0.427c-0.122,0.123-0.266,0.184-0.429,0.184H25.012c-0.178,0-0.326-0.061-0.449-0.184
			c-0.121-0.121-0.183-0.265-0.183-0.427V15.742c0-0.163,0.058-0.305,0.173-0.428c0.115-0.122,0.262-0.183,0.438-0.183h4.421
			c0.162,0,0.308,0.062,0.438,0.183c0.128,0.123,0.192,0.265,0.192,0.428L30.021,26.375z"/>
	</g>
</g>
<g opacity="0.78">
	<polygon fill-rule="evenodd" clip-rule="evenodd" fill="#93C842" points="21.945,9.5 43.5,21.945 31.057,43.5 9.5,31.056 
		21.945,9.5 	"/>
	<path fill-rule="evenodd" clip-rule="evenodd" fill="#FFFFFF" d="M34.388,37.761c-2.493,1.579-5.507,2.405-8.686,2.175
		c-0.341-0.025-0.677-0.061-1.011-0.109c-3.25-1.838-6.007-3.457-9.204-5.306c-1.898-2.421-3.003-5.467-2.959-8.709
		c-0.023-0.108,2.087-3.784,2.214-3.867c-1.403,12.612,10.952,19.404,21.157,13.154C35.964,35.075,34.443,37.772,34.388,37.761
		L34.388,37.761z"/>
	<path fill-rule="evenodd" clip-rule="evenodd" fill="#FFFFFF" d="M31.234,35.344C20.65,39.26,11.135,26.565,18.46,17.021
		c1.652-2.154,5.08-3.98,7.705-4.35C11.558,19.449,19.54,37.203,31.234,35.344L31.234,35.344z"/>
	<path fill-rule="evenodd" clip-rule="evenodd" fill="#FFFFFF" d="M25.258,32.729c-8.481-3.687-6.879-16.97,2.864-18.459
		c0.637-0.099,1.344-0.095,2.071-0.01c0.026,0.015,1.934,1.114,1.926,1.113C21.795,14.271,17.489,27.111,25.258,32.729
		L25.258,32.729z"/>
	<g>
		<path fill="#1F1A17" d="M32.521,28.875h7.699c0.164,0,0.31,0.057,0.438,0.174c0.129,0.115,0.192,0.261,0.192,0.437v3.504
			c0,0.162-0.06,0.306-0.182,0.427c-0.122,0.123-0.266,0.184-0.429,0.184H27.512c-0.178,0-0.326-0.061-0.449-0.184
			c-0.121-0.121-0.183-0.265-0.183-0.427V18.242c0-0.163,0.058-0.305,0.173-0.428c0.115-0.122,0.262-0.183,0.438-0.183h4.421
			c0.162,0,0.308,0.062,0.438,0.183c0.128,0.123,0.192,0.265,0.192,0.428L32.521,28.875z"/>
	</g>
</g>
<g>
	<polygon fill-rule="evenodd" clip-rule="evenodd" fill="#93C842" points="24.445,12 46,24.445 33.557,46 12,33.556 24.445,12 	"/>
	<path fill-rule="evenodd" clip-rule="evenodd" fill="#FFFFFF" d="M36.888,40.261c-2.493,1.579-5.507,2.405-8.686,2.175
		c-0.341-0.025-0.677-0.061-1.011-0.109c-3.25-1.838-6.007-3.457-9.204-5.306c-1.898-2.421-3.003-5.467-2.959-8.709
		c-0.023-0.108,2.087-3.784,2.214-3.867c-1.403,12.612,10.952,19.404,21.157,13.154C38.464,37.575,36.943,40.272,36.888,40.261
		L36.888,40.261z"/>
	<path fill-rule="evenodd" clip-rule="evenodd" fill="#FFFFFF" d="M33.734,37.844C23.15,41.76,13.635,29.065,20.96,19.521
		c1.652-2.154,5.08-3.98,7.705-4.35C14.058,21.949,22.04,39.703,33.734,37.844L33.734,37.844z"/>
	<path fill-rule="evenodd" clip-rule="evenodd" fill="#FFFFFF" d="M27.758,35.229c-8.481-3.687-6.879-16.97,2.864-18.459
		c0.637-0.099,1.344-0.095,2.071-0.01c0.026,0.015,1.934,1.114,1.926,1.113C24.295,16.771,19.989,29.611,27.758,35.229
		L27.758,35.229z"/>
	<g>
		<path fill="#1F1A17" d="M35.021,31.375h7.699c0.164,0,0.31,0.057,0.438,0.174c0.129,0.115,0.192,0.261,0.192,0.437v3.504
			c0,0.162-0.06,0.306-0.182,0.427c-0.122,0.123-0.266,0.184-0.429,0.184H30.012c-0.178,0-0.326-0.061-0.449-0.184
			c-0.121-0.121-0.183-0.265-0.183-0.427V20.742c0-0.163,0.058-0.305,0.173-0.428c0.115-0.122,0.262-0.183,0.438-0.183h4.421
			c0.162,0,0.308,0.062,0.438,0.183c0.128,0.123,0.192,0.265,0.192,0.428L35.021,31.375z"/>
	</g>
</g>
</svg>
